<svg xmlns="http://www.w3.org/2000/svg" xmlns:xlink="http://www.w3.org/1999/xlink" width="1920" height="860" viewBox="0 0 1920 860">
  <defs>
    <clipPath id="clip-Tshirt_Logo">
      <rect width="1920" height="860"/>
    </clipPath>
  </defs>
  <g id="Tshirt_Logo" data-name="Tshirt Logo" clip-path="url(#clip-Tshirt_Logo)">
    <rect width="1920" height="860" fill="#fff"/>
    <g id="Group_1" data-name="Group 1" transform="translate(-1400.089 -429.099)">
      <g id="Group_140" data-name="Group 140" transform="translate(2003.397 562.786)">
        <text id="rofizz" transform="translate(0 636)" fill="#ef8010" font-size="663" font-family="Caveat-Bold, Caveat" font-weight="700"><tspan x="0" y="0">rofizz</tspan></text>
      </g>
      <path id="Union_12" data-name="Union 12" d="M275.408,780.194c-10.849-.883-21.58-2.227-31.9-3.992S223,772.2,213.219,769.546s-19.436-5.784-28.688-9.317a285.945,285.945,0,0,1-27.084-11.979,279.47,279.47,0,0,1-25.479-14.64,282.279,282.279,0,0,1-23.875-17.3,295.838,295.838,0,0,1-42.4-42.059,280.121,280.121,0,0,1-17.444-23.692,276.068,276.068,0,0,1-14.759-25.289,281.323,281.323,0,0,1-12.076-26.886A296.741,296.741,0,0,1,12.024,569.9c-2.671-9.715-4.928-19.835-6.709-30.081S2.18,518.915,1.29,508.14-.052,486.17-.052,474.865c0-11.572.45-23.028,1.338-34.051s2.238-21.923,4.014-32.4,4.028-20.818,6.691-30.742,5.816-19.712,9.367-29.088A289.757,289.757,0,0,1,33.4,321.155a281.761,281.761,0,0,1,14.72-25.778q2.064-3.207,4.23-6.378a8.891,8.891,0,0,1,1.72-4.044q7.684-10.094,16.211-19.47c4.853-5.721,9.981-11.317,15.307-16.7a289.158,289.158,0,0,1,34.96-30.15,277.533,277.533,0,0,1,34.86-21.669c132.054-79.689,300.63-93.874,300.63-93.874s-181.333-52.61-339.625,60.8C121.361,130.181,138.09,39.931,246.464,8.975,393.391-33,623.761,85.508,594.273,92.768c-126.251,31.117-148.444,154.112-240.2,189.217-52.581,20.116-110.228.9-153.973-22.512a204.2,204.2,0,0,0-44.29,38.119C116.549,342.2,96.643,399.829,96.643,468.879c0,69.357,22.463,127.064,66.765,171.517s101.623,67,170.366,67c15.58,0,35.719-1.859,59.858-5.526V545.774H282.664V477.628H484.34V752.056c-15.356,4.89-30.722,9.227-45.671,12.893s-29.911,6.764-44.462,9.209-29.1,4.3-43.254,5.526-28.3,1.841-42.044,1.841C297.528,781.525,286.257,781.077,275.408,780.194Z" transform="translate(1518.836 446.099)" fill="#ef8010"/>
    </g>
  </g>
</svg>
